<svg xmlns="http://www.w3.org/2000/svg" width="219.99999999999997" height="219.99999999999997" fill="none"
  data-locator-target="vscode">
  <script xmlns="" id="argent-x-extension" data-extension-id="dlcobpjiigpikoobohmabehhmhfoodbb" />
  <script xmlns="" />
  <g>
    <title>Layer 1</title>
    <path
      d="m117.444,167.888c0,-27.615 22.386,-50 50,-50l0,0c27.614,0 50,22.385 50,50l0,0c0,27.614 -22.386,50 -50,50l0,0c-27.614,0 -50,-22.386 -50,-50l0,0z"
      fill="#858585" id="svg_1" />
    <path
      d="m117.444,53c0,-27.6142 22.386,-50 50,-50l0,0c27.614,0 50,22.3858 50,50l0,45c0,2.761 -2.239,5 -5,5l-90,0c-2.761,0 -5,-2.239 -5,-5l0,-45z"
      fill="#CCCCCC" id="svg_2" />
    <path stroke="null"
      d="m102,167.888c0,27.614 -22.3858,50 -50,50l0,0c-27.6142,0 -50,-22.386 -50,-50l0.00001,-45c0,-2.762 2.23858,-5 5,-5l89.99999,0c2.7614,0 5,2.238 5,5l0,45z"
      fill="#0acf83" id="svg_3" />
    <path transform="rotate(90 52 54.5547)"
      d="m102,54.55467c0,27.614 -22.3858,50 -50,50l0,0c-27.6142,0 -50,-22.386 -50,-50l0.00001,-45c0,-2.762 2.23858,-5 5,-5l89.99999,0c2.7614,0 5,2.238 5,5l0,45z"
      fill="#a295ff" id="svg_6" />
  </g>

  <script xmlns="" />
</svg>
